<svg width="99" height="104" viewBox="0 0 99 104" fill="none" xmlns="http://www.w3.org/2000/svg">
<g filter="url(#filter0_d_342_82)">
<circle cx="47.5" cy="48" r="47.5" fill="#D9D9D9"/>
<path d="M34.3221 19.5L39.5721 23.25C38.5721 24.65 37.3721 26.65 35.9721 29.25C34.6721 31.85 33.5721 34.75 32.6721 37.95C31.7721 41.05 31.4221 44.1 31.6221 47.1C32.3221 46.8 32.9221 46.65 33.4221 46.65C33.9221 46.55 34.4221 46.5 34.9221 46.5C37.4221 46.5 39.5721 47.25 41.3721 48.75C43.2721 50.25 44.2221 52.5 44.2221 55.5C44.2221 58.4 43.2721 60.85 41.3721 62.85C39.5721 64.85 37.1721 65.85 34.1721 65.85C29.9721 65.95 26.7721 64.55 24.5721 61.65C22.4721 58.75 21.4221 55.15 21.4221 50.85C21.4221 47.85 21.9221 44.55 22.9221 40.95C23.9221 37.35 25.3721 33.7 27.2721 30C29.1721 26.3 31.5221 22.8 34.3221 19.5ZM63.1221 19.5L68.3721 23.25C67.3721 24.65 66.1721 26.65 64.7721 29.25C63.4721 31.85 62.3721 34.75 61.4721 37.95C60.5721 41.05 60.2221 44.1 60.4221 47.1C61.1221 46.8 61.7221 46.65 62.2221 46.65C62.7221 46.55 63.2221 46.5 63.7221 46.5C66.2221 46.5 68.3721 47.25 70.1721 48.75C72.0721 50.25 73.0221 52.5 73.0221 55.5C73.0221 58.4 72.0721 60.85 70.1721 62.85C68.3721 64.85 65.9721 65.85 62.9721 65.85C58.7721 65.95 55.5721 64.55 53.3721 61.65C51.2721 58.75 50.2221 55.15 50.2221 50.85C50.2221 47.85 50.7221 44.55 51.7221 40.95C52.7221 37.35 54.1721 33.7 56.0721 30C57.9721 26.3 60.3221 22.8 63.1221 19.5Z" fill="white"/>
</g>
<defs>
<filter id="filter0_d_342_82" x="-4" y="0.5" width="103" height="103" filterUnits="userSpaceOnUse" color-interpolation-filters="sRGB">
<feFlood flood-opacity="0" result="BackgroundImageFix"/>
<feColorMatrix in="SourceAlpha" type="matrix" values="0 0 0 0 0 0 0 0 0 0 0 0 0 0 0 0 0 0 127 0" result="hardAlpha"/>
<feOffset dy="4"/>
<feGaussianBlur stdDeviation="2"/>
<feComposite in2="hardAlpha" operator="out"/>
<feColorMatrix type="matrix" values="0 0 0 0 0 0 0 0 0 0 0 0 0 0 0 0 0 0 0.25 0"/>
<feBlend mode="normal" in2="BackgroundImageFix" result="effect1_dropShadow_342_82"/>
<feBlend mode="normal" in="SourceGraphic" in2="effect1_dropShadow_342_82" result="shape"/>
</filter>
</defs>
</svg>
